<svg width="20" height="24" viewBox="0 0 20 24" fill="none" xmlns="http://www.w3.org/2000/svg">
<path d="M3.3135 0.526578L4.8222 0.113773C6.23835 -0.272631 7.74844 0.352576 8.35556 1.57419L9.55999 4.00782C10.0844 5.06743 9.79415 6.31425 8.8393 7.08946L6.18366 9.24708C6.34631 10.5383 6.85388 11.8091 7.70357 13.0595C8.51089 14.2694 9.59368 15.3283 10.8878 16.1736L14.0777 15.2616C15.2877 14.9171 16.6043 15.3144 17.3446 16.2468L19.0734 18.4188C19.9357 19.5036 19.7815 20.9988 18.7117 21.918L17.5647 22.9032C16.4234 23.8837 14.7927 24.2401 13.2854 23.8369C9.72544 22.8864 6.45287 20.0652 3.46634 15.3732C0.475596 10.6739 -0.580207 6.68505 0.30033 3.41141C0.670492 2.0338 1.81603 0.935783 3.3135 0.526578Z" fill="black"/>
</svg>
