<svg width="79" height="51" viewBox="0 0 79 51" fill="none" xmlns="http://www.w3.org/2000/svg">
<path d="M0.924544 8.54772C1.01875 8.53202 1.11296 8.51632 1.22287 8.48492C1.66251 8.37501 2.21206 8.2651 2.87152 8.15519C3.53099 8.04528 4.19045 7.99817 4.88131 8.01388C5.02262 8.01388 5.14823 7.95107 5.24244 7.80976C5.32095 7.66844 5.35235 7.51143 5.32095 7.33871C7.37784 6.89907 9.45043 6.53794 11.5701 6.23961C11.3503 6.56934 11.1305 6.86767 10.9578 7.11889C10.7065 7.46433 10.4553 7.80976 10.2198 8.15519C9.98428 8.50062 9.73306 8.90886 9.43473 9.3956C9.1207 9.89805 8.74387 10.5889 8.28853 11.4682C7.84888 12.3632 7.37784 13.3681 6.9068 14.4829C6.42005 15.6134 6.10602 16.7596 5.93331 17.9215C5.77629 19.0991 5.8705 19.9156 6.24734 20.3866C6.60847 20.7478 7.07951 20.8734 7.64477 20.7635C7.94309 20.6692 8.11581 20.5122 8.14721 20.261C8.16291 20.0255 8.0373 19.8528 7.73897 19.7586C7.64477 19.7429 7.56626 19.7272 7.50345 19.7272C7.40924 19.7429 7.34644 19.7272 7.28363 19.7115C7.22083 19.6801 7.17372 19.6172 7.12662 19.523C7.06381 19.3503 7.03241 19.1305 7.01671 18.895C7.01671 18.6595 7.03241 18.4396 7.04811 18.2512C7.31504 16.5241 7.94309 14.687 8.93228 12.74C9.90577 10.793 10.9421 9.08157 12.0098 7.57424C12.0412 7.54283 12.0726 7.49573 12.104 7.44862L12.5122 6.88337C12.6849 6.66355 12.8419 6.45943 13.0147 6.28672C13.1717 6.0983 13.313 6.00409 13.4229 5.98839L15.1815 5.76857C16.3434 5.62725 17.4268 5.50164 18.4474 5.42314C19.468 5.34463 20.7084 5.31323 22.1686 5.34463C22.2785 5.34463 22.3727 5.34463 22.4826 5.36033C22.5768 5.37603 22.6868 5.39173 22.781 5.39173C23.0165 5.37603 23.1892 5.31323 23.3148 5.17191C23.4247 5.0306 23.4718 4.88929 23.4404 4.73227C23.409 4.55956 23.2834 4.44965 23.0636 4.37114C22.5925 4.24553 21.8546 4.19842 20.8497 4.24553C19.8448 4.27693 18.8085 4.33974 17.7094 4.44965C16.626 4.54385 15.731 4.63806 15.0244 4.71657C14.8046 4.74797 14.6319 4.76367 14.4906 4.77938C14.5063 4.40254 14.3964 4.18272 14.1452 4.11992C13.9096 4.05711 13.6741 4.08851 13.4386 4.22983C13.2031 4.38684 13.0461 4.54385 12.9205 4.70087C12.8419 4.79508 12.7634 4.87359 12.6849 4.93639C12.5907 5.0149 12.4965 5.0463 12.3709 5.062C11.6172 5.17191 10.4239 5.34463 8.79097 5.62725C7.15802 5.89418 5.54077 6.20821 3.95492 6.56934C2.35338 6.91477 1.23857 7.27591 0.594813 7.63704C0.327889 7.84116 0.23368 8.04528 0.312187 8.2808C0.390695 8.50062 0.594813 8.59483 0.924544 8.54772ZM14.897 15.2679C15.1639 15.2208 15.4937 15.0481 15.8862 14.7969C16.2944 14.53 16.6556 14.2631 17.001 13.9961C17.3464 13.7135 17.5505 13.5408 17.629 13.4466C17.4563 13.8234 17.2051 14.4358 16.8754 15.2365C16.5299 16.053 16.263 16.7439 16.0746 17.3405C15.9961 17.5918 16.0589 17.7959 16.2316 17.9372C16.4043 18.0942 16.5928 18.1413 16.8126 18.1256C17.0324 18.0942 17.1894 17.9686 17.2522 17.7331C17.5976 16.2414 18.2885 14.4986 19.3091 12.4731C20.3297 10.4476 21.5387 8.35931 22.9361 6.19251C23.1089 5.89418 23.1246 5.64296 22.9832 5.43884C22.8419 5.23472 22.6535 5.12481 22.4023 5.10911C22.1511 5.09341 21.9469 5.20332 21.7742 5.45454C21.0206 6.80486 20.4396 7.84116 20.0628 8.56343C19.7801 9.11298 19.5132 9.58402 19.2777 9.99226C19.0422 10.4005 18.7596 10.8244 18.4455 11.2641C17.9745 11.9235 17.2836 12.6458 16.3415 13.3995C15.792 13.8548 15.3837 14.106 15.1482 14.1845C14.897 14.2631 14.74 14.2159 14.7086 14.0432C14.6772 13.8705 14.6929 13.6507 14.7871 13.3681C14.8656 13.0697 14.9755 12.8028 15.0854 12.5359C15.211 12.2533 15.3052 12.0649 15.368 11.9392C15.4151 11.845 15.3837 11.7351 15.3052 11.6252C15.2267 11.5153 15.1168 11.4368 14.9912 11.374C14.8656 11.3112 14.74 11.3112 14.6458 11.3583C14.5045 11.4368 14.3317 11.5624 14.159 11.7194C13.6566 11.2327 13.107 11.2484 12.5104 11.7822C10.8617 13.164 9.93534 14.2788 9.73122 15.1423C9.5271 16.0059 9.76262 16.3513 10.4221 16.1629C10.6733 16.053 11.003 15.8332 11.4113 15.4878C11.8352 15.1423 12.2592 14.7655 12.6831 14.3887C13.0913 13.9961 13.4368 13.6978 13.7037 13.478C13.5624 14.1845 13.6252 14.6713 13.8764 14.9539C14.1433 15.2365 14.4888 15.3465 14.897 15.2679ZM11.427 14.1688L11.6154 13.949C11.741 13.8077 11.898 13.6507 12.0707 13.478C12.2592 13.2896 12.4162 13.1483 12.5732 13.0069C12.7302 12.8813 12.8401 12.8185 12.9029 12.8185C12.8401 12.897 12.7302 13.0069 12.5889 13.1483C12.4319 13.3053 12.2592 13.4623 12.0864 13.6193C11.9137 13.792 11.7567 13.9176 11.6311 14.0275C11.5055 14.1374 11.427 14.1845 11.427 14.1688ZM26.4411 7.32301C26.8023 6.67925 27.1477 6.1297 27.4774 5.65866C27.6658 5.36033 27.8071 5.14051 27.8857 4.9992C27.9956 4.79508 27.9799 4.60666 27.8857 4.43394C27.7757 4.26123 27.6187 4.19842 27.3832 4.21412C27.1634 4.22983 26.9122 4.41824 26.6295 4.76367C23.976 8.39071 21.8249 12.2533 20.2076 16.3513L20.1605 16.4613C19.8936 17.0893 19.6267 17.7959 19.3912 18.5967C19.3441 18.7851 19.4069 18.9264 19.5796 19.0363C19.7366 19.1462 19.925 19.1933 20.1291 19.1776C20.3176 19.1776 20.4589 19.0991 20.5217 18.9421C20.7415 18.2512 21.0555 17.4347 21.4324 16.477C21.8249 15.5192 22.1703 14.7027 22.4687 14.0275C22.7042 14.4044 23.1909 14.5928 23.9289 14.5771C24.6669 14.5614 25.5618 14.4201 26.5981 14.1688C27.6187 13.9019 28.4666 13.635 29.0947 13.3681C29.2988 13.2739 29.393 13.164 29.4244 13.0069C29.4401 12.8499 29.3773 12.7243 29.2674 12.6144C29.1418 12.5202 28.9848 12.4888 28.7806 12.5359C28.1997 12.7557 27.603 12.9441 26.9907 13.1011C26.3783 13.2582 25.8288 13.3838 25.3263 13.4623C24.8239 13.5408 24.3842 13.5722 24.0074 13.5565C23.6306 13.5408 23.5521 13.4152 23.7719 13.1954C24.2743 12.7714 24.9024 12.4417 25.6403 12.1905C25.8602 12.0963 25.9544 11.9392 25.9544 11.7351C25.9387 11.531 25.8602 11.3583 25.6875 11.217C25.5304 11.0757 25.3263 11.0286 25.0908 11.1071C24.8082 11.217 24.5098 11.3897 24.1801 11.6252C23.8504 11.845 23.6149 12.0177 23.4578 12.1434C23.4735 11.9863 23.6463 11.6095 23.976 11.0286C24.29 10.4319 24.6355 9.83524 24.9966 9.22289C25.3577 8.62623 25.6089 8.21799 25.7346 7.99817C25.8131 7.88826 25.8759 7.80976 25.923 7.77835C25.9701 7.74695 26.0172 7.71555 26.0643 7.71555C26.1114 7.69985 26.1742 7.66844 26.237 7.62134C26.2841 7.57424 26.3626 7.48003 26.4411 7.32301ZM29.1906 11.2798C28.908 11.6252 28.5625 12.1591 28.1386 12.8656C27.7147 13.5722 27.5105 14.2317 27.5262 14.8283C27.699 15.6605 28.1072 16.0687 28.7667 16.053C29.4261 16.0373 30.1641 15.8018 30.9963 15.3308C31.8284 14.8597 32.5821 14.3573 33.273 13.8077C33.9638 13.2582 34.4192 12.8656 34.6704 12.6301C34.8117 12.4731 34.8745 12.3475 34.8431 12.2219C34.8117 12.0963 34.7489 12.0177 34.6233 11.9706C34.5134 11.9235 34.3878 11.9549 34.2622 12.0334C34.2465 12.0491 34.2151 12.0806 34.1523 12.1277C33.9324 12.3004 33.5399 12.6144 32.9589 13.0383C32.378 13.4623 31.7499 13.8705 31.0591 14.2631C30.3682 14.6556 29.7244 14.8911 29.1592 14.9696C28.7824 15.001 28.6253 14.8597 28.6881 14.5457C28.7353 14.2317 28.9237 13.8391 29.222 13.3838C29.5203 12.9127 29.8344 12.4574 30.1798 12.0177C30.3054 11.8136 30.3054 11.6409 30.1798 11.4682C30.0542 11.3112 29.8972 11.2013 29.693 11.1542C29.4732 11.1071 29.3162 11.1385 29.1906 11.2798ZM30.117 10.322C30.0542 10.6046 30.0699 10.7773 30.1641 10.8244C30.3054 10.8558 30.5252 10.7773 30.8235 10.5575C31.1219 10.3534 31.4045 10.1022 31.6871 9.80384C31.954 9.52122 32.1268 9.26999 32.2053 9.08157C32.2524 8.90886 32.1896 8.79895 32.0169 8.73614C31.8598 8.67334 31.6714 8.64193 31.4673 8.65764C31.2632 8.65764 31.1062 8.70474 31.012 8.76755C30.8235 8.90886 30.6351 9.14438 30.4781 9.44271C30.3054 9.75674 30.1955 10.0551 30.117 10.322ZM34.393 11.2013C33.6551 12.4417 33.0427 13.5879 32.556 14.6713C32.4775 14.8911 32.4932 15.0795 32.6031 15.2522C32.713 15.4093 32.87 15.5192 33.0427 15.582C33.2311 15.6448 33.3882 15.6134 33.5295 15.5192C33.6865 15.3622 33.9691 15.0638 34.3773 14.6399L35.4764 13.5251C35.8533 13.1483 36.1673 12.8342 36.4185 12.6144C36.6855 12.3946 36.7954 12.3318 36.7797 12.4417C36.7326 12.5673 36.6698 12.7086 36.5913 12.8813C36.3871 13.2896 36.2301 13.7292 36.1045 14.2002C35.9789 14.6713 36.0574 15.001 36.3714 15.2051C36.8896 15.425 37.5961 15.2836 38.4754 14.8283C39.3547 14.3573 40.1398 13.8548 40.862 13.2896C41.0348 13.1483 41.1133 13.0069 41.1133 12.8499C41.0976 12.6929 41.0348 12.583 40.9092 12.5045C40.7835 12.4417 40.6265 12.4574 40.4538 12.583C40.4381 12.583 40.4224 12.5987 40.4224 12.5987C40.2497 12.7243 39.9671 12.9284 39.5431 13.2111C39.1349 13.4937 38.7109 13.7449 38.2713 13.9647C37.8317 14.1845 37.5019 14.2631 37.2664 14.2002C37.2036 14.1688 37.2193 14.0118 37.3449 13.7606C37.4548 13.5094 37.5961 13.2268 37.7689 12.897L38.1143 12.2376C38.2085 12.0334 38.2713 11.8764 38.3027 11.7508C38.3341 11.5938 38.287 11.4211 38.1771 11.2641C38.0672 11.0914 37.9416 10.9657 37.7689 10.8715C37.6118 10.7773 37.4548 10.7459 37.3135 10.793C37.1408 10.8715 36.8582 11.0757 36.4813 11.3897C36.1045 11.688 35.7277 12.0177 35.3665 12.3475C34.9897 12.6772 34.7385 12.9127 34.5815 13.0697C34.5815 13.0069 34.6286 12.9127 34.7071 12.7714C34.8013 12.6458 34.9112 12.4888 35.0368 12.3004C35.1467 12.1591 35.2566 11.9863 35.3665 11.8293C35.4607 11.6723 35.445 11.5153 35.3351 11.3426C35.2095 11.1856 35.0525 11.0757 34.8641 11.0286C34.6757 10.9815 34.5187 11.0443 34.393 11.2013ZM37.9976 24.0451C38.6414 23.26 39.2695 22.3964 39.8661 21.4543C40.4 20.6378 40.8082 20.0569 41.1222 19.7429L42.0015 18.895C43.9328 16.948 46.3194 14.8597 49.1614 12.6144C49.3498 12.4574 49.444 12.269 49.4283 12.0491C49.4283 11.845 49.3655 11.6723 49.2399 11.5467C49.1143 11.4211 48.973 11.4211 48.8002 11.5467C47.2301 12.8185 45.8798 13.9804 44.765 15.0324C43.9642 15.7547 43.3675 16.2728 42.9436 16.6183C43.0849 16.3985 43.3518 15.9117 43.7287 15.1423C44.1055 14.3887 44.4195 13.6036 44.6865 12.7871C44.9534 11.9706 44.9848 11.374 44.7964 11.0129C44.7022 10.8715 44.5765 10.8087 44.4352 10.8244C44.2782 10.8401 44.1369 10.8872 44.0113 10.9815L43.7287 11.1699C43.713 11.1699 43.713 11.1856 43.6973 11.1856C43.6188 11.1385 43.5245 11.0443 43.4303 10.9186C43.3518 10.8244 43.2733 10.7302 43.1791 10.636C43.0849 10.5575 42.975 10.5104 42.8494 10.5104C42.5197 10.5418 42.08 10.793 41.5462 11.2641C40.9966 11.7508 40.4785 12.2847 39.976 12.897C39.4579 13.5094 39.0653 14.0275 38.8141 14.4672C38.5315 14.9539 38.4216 15.3622 38.4687 15.6919C38.5315 16.0216 38.767 16.1472 39.1752 16.053C39.4579 15.9588 39.8504 15.7076 40.3372 15.2994C40.8239 14.8911 41.3263 14.4358 41.8602 13.9333C42.6139 13.2268 43.2419 12.6772 43.7444 12.3161C43.4774 13.3053 43.1163 14.2002 42.6767 15.001C42.2213 15.8018 41.7032 16.6026 41.1379 17.4347C41.0437 17.5761 40.9338 17.7331 40.8396 17.8901C40.4471 18.4239 39.8975 19.0363 39.2066 19.7115C38.453 20.4337 37.6993 21.2659 36.9299 22.208C36.7101 22.5377 36.6473 22.8989 36.7572 23.26C36.8514 23.6368 37.0241 23.9037 37.2754 24.0922C37.5266 24.2806 37.7778 24.2649 37.9976 24.0451Z" fill="#3E3E3E"/>
<path d="M15.4397 33.3738H11.5693V45.7858H6.23081V33.3738H2.3604V29.103H15.4397V33.3738ZM16.9078 32.4395H19.577L21.0451 33.9343C22.095 32.9734 23.4119 32.3417 24.9956 32.0391L25.3159 37.084C24.8888 37.1018 24.3283 37.2086 23.6343 37.4043C22.9581 37.6001 22.4954 37.8492 22.2463 38.1517V45.7858H16.9078V32.4395ZM33.2436 32.0391C37.5144 32.0391 39.6498 33.5072 39.6498 36.4434V45.7858H36.9805L35.4591 44.2643C34.943 44.8693 34.2401 45.3409 33.3504 45.679C32.4606 46.0171 31.6153 46.1862 30.8146 46.1862C30.0316 46.1862 29.3999 46.1239 28.9194 45.9993C28.4389 45.8747 27.9674 45.6612 27.5047 45.3587C26.4904 44.7181 25.9832 43.5258 25.9832 41.7819C25.9832 38.5788 28.4034 36.9773 33.2436 36.9773H34.3113V36.0163C33.7418 35.9807 33.2703 35.9629 32.8966 35.9629C30.8858 35.9629 29.1596 36.2032 27.7182 36.6836L27.0776 32.8666C28.8571 32.315 30.9124 32.0391 33.2436 32.0391ZM31.3751 41.1947V42.2891H32.4695C33.2525 42.2891 33.7507 42.2001 33.9643 42.0221C34.1956 41.8442 34.3113 41.6128 34.3113 41.3281V40.0736H33.2169C32.5763 40.0736 32.1047 40.1448 31.8022 40.2871C31.5175 40.4117 31.3751 40.7142 31.3751 41.1947ZM44.0643 45.7858L40.7277 32.4395H46.0662L47.5343 41.1146H47.8012L49.2693 32.4395H54.6078L51.2712 45.7858H44.0643ZM61.1349 41.248V42.1823C61.6688 42.2357 62.2026 42.2624 62.7365 42.2624C64.3914 42.2624 66.0641 41.9954 67.7547 41.4616L68.3953 45.3854C66.4022 45.9192 64.427 46.1862 62.4695 46.1862C59.9782 46.1862 58.1721 45.6078 57.051 44.4511C55.9477 43.2767 55.396 41.4972 55.396 39.1126C55.396 36.7281 55.9477 34.9575 57.051 33.8008C58.1721 32.6264 59.9694 32.0391 62.4429 32.0391C64.9342 32.0391 66.6514 32.3772 67.5945 33.0535C68.5376 33.7297 69.0092 34.9931 69.0092 36.8438C69.0092 38.4097 68.4398 39.5397 67.3009 40.2337C66.1798 40.9099 64.1245 41.248 61.1349 41.248ZM61.1349 37.0573V38.1517H62.2293C62.8699 38.1517 63.3326 38.0894 63.6173 37.9649C63.9198 37.8225 64.0711 37.5111 64.0711 37.0306V35.9362H62.9767C62.3361 35.9362 61.8645 36.0074 61.562 36.1498C61.2773 36.2743 61.1349 36.5769 61.1349 37.0573ZM76.3611 28.0353V41.9687C76.9305 42.0755 77.3665 42.1378 77.669 42.1556L77.4288 46.0794C75.151 46.0794 73.6474 45.9459 72.9178 45.679C72.0102 45.3409 71.4497 44.9138 71.2361 44.3978C71.0938 44.0774 71.0226 43.7038 71.0226 43.2767V28.4357L76.3611 28.0353Z" fill="url(#paint0_linear_702_689)"/>
<defs>
<linearGradient id="paint0_linear_702_689" x1="25" y1="26.5" x2="62.5" y2="50" gradientUnits="userSpaceOnUse">
<stop stop-color="#862F85"/>
<stop offset="0.260417" stop-color="#E91F2F"/>
<stop offset="0.520833" stop-color="#F58E26"/>
<stop offset="0.739583" stop-color="#ECDC60"/>
<stop offset="1" stop-color="#889E40"/>
</linearGradient>
</defs>
</svg>
